<svg width="20" height="20" viewBox="0 0 20 20" fill="none" xmlns="http://www.w3.org/2000/svg">
<path d="M10 16.5C10.4167 16.5 10.7708 16.3542 11.0625 16.0625C11.3542 15.7708 11.5 15.4167 11.5 15H8.5C8.5 15.4167 8.64583 15.7708 8.9375 16.0625C9.22917 16.3542 9.58333 16.5 10 16.5ZM5 14H15V12H14V9.4C14 8.38333 13.7375 7.45417 13.2125 6.6125C12.6875 5.77083 11.95 5.23333 11 5V4.5C11 4.21667 10.9042 3.97917 10.7125 3.7875C10.5208 3.59583 10.2833 3.5 10 3.5C9.71667 3.5 9.47917 3.59583 9.2875 3.7875C9.09583 3.97917 9 4.21667 9 4.5V5C8.05 5.23333 7.3125 5.77083 6.7875 6.6125C6.2625 7.45417 6 8.38333 6 9.4V12H5V14ZM8 12V9C8 8.45 8.19583 7.97917 8.5875 7.5875C8.97917 7.19583 9.45 7 10 7C10.55 7 11.0208 7.19583 11.4125 7.5875C11.8042 7.97917 12 8.45 12 9V12H8ZM10 20C8.61667 20 7.31667 19.7375 6.1 19.2125C4.88333 18.6875 3.825 17.975 2.925 17.075C2.025 16.175 1.3125 15.1167 0.7875 13.9C0.2625 12.6833 0 11.3833 0 10C0 8.61667 0.2625 7.31667 0.7875 6.1C1.3125 4.88333 2.025 3.825 2.925 2.925C3.825 2.025 4.88333 1.3125 6.1 0.7875C7.31667 0.2625 8.61667 0 10 0C11.3833 0 12.6833 0.2625 13.9 0.7875C15.1167 1.3125 16.175 2.025 17.075 2.925C17.975 3.825 18.6875 4.88333 19.2125 6.1C19.7375 7.31667 20 8.61667 20 10C20 11.3833 19.7375 12.6833 19.2125 13.9C18.6875 15.1167 17.975 16.175 17.075 17.075C16.175 17.975 15.1167 18.6875 13.9 19.2125C12.6833 19.7375 11.3833 20 10 20ZM10 18C12.2333 18 14.125 17.225 15.675 15.675C17.225 14.125 18 12.2333 18 10C18 7.76667 17.225 5.875 15.675 4.325C14.125 2.775 12.2333 2 10 2C7.76667 2 5.875 2.775 4.325 4.325C2.775 5.875 2 7.76667 2 10C2 12.2333 2.775 14.125 4.325 15.675C5.875 17.225 7.76667 18 10 18Z" fill="#1C1B1F"/>
</svg>
