<svg width="21" height="18" viewBox="0 0 21 18" fill="none" xmlns="http://www.w3.org/2000/svg">
<path d="M8.09999 7.79998C9.05477 7.79998 9.97045 7.42069 10.6456 6.74556C11.3207 6.07043 11.7 5.15475 11.7 4.19998C11.7 3.2452 11.3207 2.32952 10.6456 1.65439C9.97045 0.97926 9.05477 0.599976 8.09999 0.599976C7.14521 0.599976 6.22954 0.97926 5.55441 1.65439C4.87928 2.32952 4.49999 3.2452 4.49999 4.19998C4.49999 5.15475 4.87928 6.07043 5.55441 6.74556C6.22954 7.42069 7.14521 7.79997 8.09999 7.79998ZM8.09999 10.2C10.0096 10.2 11.8409 10.9585 13.1912 12.3088C14.5414 13.6591 15.3 15.4904 15.3 17.4H0.899994C0.899994 15.4904 1.65856 13.6591 3.00883 12.3088C4.35909 10.9585 6.19044 10.2 8.09999 10.2ZM17.7 5.39998C17.7 5.08172 17.5736 4.77649 17.3485 4.55145C17.1235 4.3264 16.8183 4.19998 16.5 4.19998C16.1817 4.19998 15.8765 4.3264 15.6515 4.55145C15.4264 4.77649 15.3 5.08172 15.3 5.39998V6.59998H14.1C13.7817 6.59998 13.4765 6.7264 13.2515 6.95145C13.0264 7.17649 12.9 7.48172 12.9 7.79998C12.9 8.11824 13.0264 8.42346 13.2515 8.6485C13.4765 8.87355 13.7817 8.99998 14.1 8.99998H15.3V10.2C15.3 10.5182 15.4264 10.8235 15.6515 11.0485C15.8765 11.2735 16.1817 11.4 16.5 11.4C16.8183 11.4 17.1235 11.2735 17.3485 11.0485C17.5736 10.8235 17.7 10.5182 17.7 10.2V8.99998H18.9C19.2183 8.99998 19.5235 8.87355 19.7485 8.6485C19.9736 8.42346 20.1 8.11824 20.1 7.79998C20.1 7.48172 19.9736 7.17649 19.7485 6.95145C19.5235 6.7264 19.2183 6.59998 18.9 6.59998H17.7V5.39998Z" fill="black"/>
</svg>
